<?xml version="1.0" encoding="UTF-8" standalone="no"?>
<!-- Created with Inkscape (http://www.inkscape.org/) -->

<svg
   xmlns:dc="http://purl.org/dc/elements/1.1/"
   xmlns:cc="http://creativecommons.org/ns#"
   xmlns:rdf="http://www.w3.org/1999/02/22-rdf-syntax-ns#"
   xmlns:svg="http://www.w3.org/2000/svg"
   xmlns="http://www.w3.org/2000/svg"
   xmlns:sodipodi="http://sodipodi.sourceforge.net/DTD/sodipodi-0.dtd"
   xmlns:inkscape="http://www.inkscape.org/namespaces/inkscape"
   width="64"
   height="32"
   id="svg3005"
   version="1.1"
   inkscape:version="0.48.4 r9939"
   sodipodi:docname="logo.svg"
   inkscape:export-filename="/home/rodriguez/Bureau/yyy.png"
   inkscape:export-xdpi="90"
   inkscape:export-ydpi="90">
  <defs
     id="defs3007" />
  <sodipodi:namedview
     id="base"
     pagecolor="#ffffff"
     bordercolor="#666666"
     borderopacity="1.0"
     inkscape:pageopacity="0.0"
     inkscape:pageshadow="2"
     inkscape:zoom="7.9195959"
     inkscape:cx="51.173987"
     inkscape:cy="26.54199"
     inkscape:document-units="px"
     inkscape:current-layer="layer1"
     showgrid="false"
     inkscape:window-width="1855"
     inkscape:window-height="1056"
     inkscape:window-x="1985"
     inkscape:window-y="24"
     inkscape:window-maximized="1" />
  <metadata
     id="metadata3010">
    <rdf:RDF>
      <cc:Work
         rdf:about="">
        <dc:format>image/svg+xml</dc:format>
        <dc:type
           rdf:resource="http://purl.org/dc/dcmitype/StillImage" />
        <dc:title />
      </cc:Work>
    </rdf:RDF>
  </metadata>
  <g
     inkscape:label="Calque 1"
     inkscape:groupmode="layer"
     id="layer1"
     transform="translate(0,-1020.3609)">
    <g
       transform="matrix(0.06417446,0,0,0.06417446,-1.5256806,992.78555)"
       id="layer1-1">
      <path
         d="m 898.2111,925.21778 c -0.0101,-0.0136 0.77506,-1.88535 1.74485,-3.23451 0.96981,-1.34916 2.04674,-3.07683 2.3932,-3.83925 0.34646,-0.76242 1.05225,-2.01002 1.56842,-2.77244 4.12898,-6.09882 9.9924,-16.34871 15.59532,-27.26233 3.65324,-7.11593 7.066,-13.69293 7.58391,-14.61556 0.51791,-0.92264 2.26889,-5.0813 3.89104,-9.24147 1.62217,-4.16018 3.78577,-9.64329 4.80799,-12.18469 1.02223,-2.5414 2.88942,-8.77939 4.14931,-13.8622 1.25989,-5.08281 2.9627,-11.52873 3.78403,-14.32427 0.82133,-2.79555 1.69317,-6.74627 1.93743,-8.7794 3.20536,-26.68085 3.51454,-31.65404 3.13331,-50.39991 -0.39733,-19.5371 -0.46357,-20.07137 -4.40717,-35.54573 -2.20208,-8.64077 -4.35241,-16.33429 -4.77852,-17.09671 -2.8994,-5.18774 -4.54553,-7.91756 -5.01551,-8.31732 -0.29878,-0.25414 -1.95001,-2.85331 -3.66939,-5.77592 -1.71939,-2.92261 -3.52634,-5.31384 -4.01544,-5.31384 -0.48912,0 -0.88929,3.93116 -0.88929,8.73591 0,4.80475 -0.3897,9.69117 -0.866,10.85872 -0.4763,1.16755 -1.57798,5.24181 -2.44817,9.05391 -1.68696,7.39021 -4.16673,14.68499 -5.48194,16.12636 -0.44061,0.48287 -0.8011,1.3882 -0.8011,2.01184 0,1.19987 -5.5697,12.76144 -8.4023,17.44145 -0.92291,1.52484 -3.14502,5.26764 -4.93801,8.31732 -3.86,6.56543 -17.71498,25.393 -24.54127,33.34921 -2.6543,3.09365 -6.33755,7.45362 -8.18501,9.68884 -6.23323,7.54149 -30.81995,29.50747 -33.02798,29.50747 -0.31602,0 -5.97691,3.11633 -12.57976,6.92519 -23.58332,13.60404 -59.15296,25.92553 -102.35616,35.45667 -15.75912,3.47664 -40.79073,8.36125 -59.81565,11.67226 -4.75062,0.82677 -11.91964,2.1026 -15.93116,2.83517 -7.27722,1.32895 -12.44536,1.7043 -9.50144,0.69007 0.79177,-0.27278 7.05395,-2.35754 13.91595,-4.63281 17.1993,-5.70285 35.52405,-13.27855 47.50618,-19.6397 5.54238,-2.94238 11.5883,-6.12989 13.43536,-7.08337 1.84707,-0.95348 3.57457,-1.96469 3.83888,-2.24713 0.26433,-0.28244 5.23121,-3.67888 11.03752,-7.54763 5.80631,-3.86877 13.35698,-9.4598 16.77927,-12.42452 10.89251,-9.43619 26.13749,-24.53974 34.85963,-34.53625 6.87547,-7.88002 10.13429,-12.78658 17.47578,-26.31195 4.96335,-9.14411 9.0419,-17.48117 9.06343,-18.52677 0.0215,-1.04561 1.17304,-7.2836 2.55893,-13.8622 2.19998,-10.44297 2.4983,-13.9551 2.35041,-27.67159 -0.18842,-17.47595 -0.50416,-23.36616 -1.29324,-24.12599 -0.55675,-0.53611 -7.34483,6.09119 -7.38988,7.21484 -0.0143,0.3562 -4.14083,3.58693 -9.17011,7.17941 -7.54792,5.39156 -10.85667,7.08309 -18.95449,9.69003 -13.67564,4.40262 -26.53795,5.5474 -42.33546,3.76796 -6.50028,-0.73219 -12.85414,-1.74842 -14.11967,-2.25829 -1.26554,-0.50987 -5.75596,-1.81777 -9.97874,-2.90644 -4.22277,-1.08867 -10.70088,-3.23463 -14.39581,-4.76881 -3.69492,-1.53417 -8.66148,-3.58682 -11.03679,-4.56146 -2.37531,-0.97463 -4.96655,-2.10596 -5.75832,-2.51406 -0.79177,-0.40812 -6.1902,-3.16921 -11.99651,-6.13577 -16.61424,-8.48855 -37.15633,-21.22771 -45.81395,-28.4115 -4.36173,-3.6192 -8.42268,-7.05038 -9.02435,-7.62485 -0.60167,-0.57446 -2.32917,-2.05569 -3.83888,-3.29161 -2.19057,-1.7933 -12.51725,-13.42022 -15.93346,-17.93966 -0.39168,-0.51817 -2.57633,-3.22938 -4.85477,-6.02493 -3.86447,-4.74152 -5.17381,-6.77856 -12.17722,-18.945 -1.46293,-2.54141 -4.24562,-7.32387 -6.18376,-10.62769 -1.93815,-3.30383 -4.17554,-7.46249 -4.97196,-9.24147 -0.79643,-1.77898 -2.54862,-5.52178 -3.89377,-8.31732 -9.06872,-18.847 -14.98255,-33.49431 -26.11855,-64.69027 -2.44945,-6.86179 -4.87999,-12.47598 -5.4012,-12.47598 -0.5212,0 -1.50816,1.66347 -2.19325,3.69659 -11.99356,35.59356 -18.49345,53.66885 -24.0935,67.00063 -3.73632,8.89492 -7.16265,16.79637 -7.61406,17.55879 -0.45139,0.76242 -4.18397,7.62421 -8.29459,15.24842 -4.11063,7.62421 -9.65174,16.9812 -12.31359,20.7933 -8.69666,12.45477 -16.71334,22.58021 -20.47986,25.86702 -2.03289,1.77398 -7.32513,6.46589 -11.76052,10.42648 -4.43538,3.96058 -10.04974,8.5079 -12.47637,10.10516 -18.05477,11.88415 -29.23067,18.59775 -42.80086,25.71138 -18.20599,9.54378 -42.04062,17.72214 -58.06309,19.92314 -13.80657,1.89661 -27.18422,1.07492 -40.30827,-2.47586 -8.4191,-2.27782 -11.60921,-3.71609 -19.38932,-8.74173 -7.53994,-4.87051 -10.89935,-7.85681 -17.65145,-15.69106 -4.58658,-5.32166 -8.68318,-9.67573 -9.10358,-9.67573 -1.2084,0 -1.8064,6.61172 -2.17322,24.02782 -0.29256,13.89056 -0.0274,17.80257 1.87878,27.7244 3.7864,19.70801 4.80977,23.37642 8.24984,29.57269 10.7289,19.32502 14.54265,25.71434 16.87144,28.2653 1.43163,1.56819 5.41013,5.9228 8.84114,9.6769 12.04998,13.18474 33.76512,33.12242 40.68265,37.35263 1.64155,1.00384 3.1286,2.14747 3.30454,2.5414 0.17596,0.39394 0.89575,0.71624 1.59954,0.71624 0.70379,0 1.42358,0.3119 1.59954,0.69311 0.68369,1.4813 15.26617,10.4446 26.28846,16.15852 10.7464,5.57091 26.49015,12.4897 32.09454,14.10433 1.31962,0.38018 2.83118,1.00818 3.35902,1.39553 1.22782,0.90106 27.43636,9.24005 29.03156,9.23723 0.6598,-9.3e-4 1.19965,0.33919 1.19965,0.75635 0,0.41716 -2.26734,0.40427 -5.03854,-0.0286 -2.77119,-0.43291 -7.73304,-1.17345 -11.02633,-1.64562 -3.29329,-0.47218 -10.63515,-1.69147 -16.31525,-2.70952 -11.16388,-2.00092 -12.23699,-2.1904 -23.76355,-4.19584 -19.58604,-3.40766 -45.96546,-9.03529 -56.83452,-12.12473 -4.63457,-1.31734 -13.80592,-3.83453 -20.38078,-5.59376 -6.57488,-1.75923 -12.40518,-3.51939 -12.95623,-3.91145 -0.55106,-0.39207 -7.48005,-3.17372 -15.39774,-6.18147 -9.43959,-3.58587 -19.67901,-8.4407 -29.74136,-14.10132 -8.44004,-4.74799 -15.56597,-8.91831 -15.83539,-9.26737 -0.26942,-0.34905 -4.70723,-4.27344 -9.86181,-8.72084 -11.23553,-9.69411 -11.54119,-9.98849 -17.02036,-16.39227 -2.37531,-2.77614 -5.24241,-6.0913 -6.37133,-7.36702 -12.38326,-14.20647 -22.91503,-29.47643 -31.84198,-43.65879 -5.31595,-8.40515 -12.10504,-24.64989 -14.99228,-35.87308 -1.76564,-6.86337 -2.5644,-12.60865 -2.69814,-19.40708 -0.10448,-5.31158 0.17833,-11.84071 0.62848,-14.50919 0.91974,-5.45223 -0.29157,-6.531 -2.59422,-2.31036 -3.06,5.60879 -6.33838,11.21699 -8.55907,14.64164 -4.69073,7.23383 -7.47577,13.9613 -9.33746,22.55526 -1.04602,4.82867 -2.641326,11.89839 -3.545126,15.71049 -1.33262,5.6208 -1.59854,10.77465 -1.40663,27.26233 0.17897,15.37571 0.7925,24.16049 2.51716,36.04172 2.107406,14.51796 7.163566,35.54256 10.667816,44.35904 0.8081,2.03313 3.17151,8.04424 5.25203,13.35803 4.45699,11.38345 15.40201,31.77442 26.00282,48.44418 4.16156,6.54406 7.39009,12.06815 7.17449,12.27575 -0.5821,0.56052 -7.42356,-6.11481 -10.21531,-9.96726 -1.33602,-1.8436 -4.42277,-5.5864 -6.85946,-8.31732 -15.01237,-16.82514 -32.271376,-37.58305 -45.236433,-54.40721 -9.11865,-11.83284 -27.28656,-37.84221 -31.63094,-45.28318 -7.16392,-12.27021 -14.73973,-27.02821 -17.26846,-33.63965 -5.61873,-14.69035 -9.20876,-25.34688 -9.72407,-28.86463 -0.28781,-1.96471 -1.24492,-8.14674 -2.12691,-13.73783 -1.82852,-11.59135 -2.01551,-36.31455 -0.41588,-54.98672 2.32959,-27.19281 8.46738,-51.63022 17.06022,-67.92479 5.71687,-10.84086 14.67723,-21.85213 22.89295,-28.13282 3.61822,-2.76604 7.26154,-5.57412 8.09626,-6.24018 0.83472,-0.66607 5.80127,-2.67383 11.03679,-4.46169 14.442747,-4.93201 30.028513,-5.97959 54.251663,-3.64646 6.44975,0.62123 30.69505,5.50809 40.49102,8.16134 l 8.44591,2.28758 9.47544,-14.01865 c 10.59114,-15.66929 11.76327,-17.28772 22.49974,-31.06657 10.5884,-13.58884 34.02727,-41.88875 34.02727,-41.88875 -0.11664,-0.0866 46.76926,-50.11264 71.62078,-50.11264 l 201.6165,0 201.6165,0 c 36.05586,1.98196 65.05724,50.90771 65.05724,50.90771 0,0 29.31178,40.95308 31.75423,44.2794 4.6063,6.27322 24.49688,34.41277 27.82839,39.76398 0.91374,1.46768 1.79488,1.36336 11.99651,-1.42044 27.61772,-7.53623 50.07282,-10.68949 70.03317,-9.83443 12.01587,0.51474 15.01673,1.12911 27.14119,5.55666 7.56366,2.76208 18.49036,10.56235 24.53238,17.51303 2.2921,2.63678 5.28719,6.02051 6.65569,7.5194 1.3685,1.49888 3.5365,4.61788 4.8177,6.9311 5.53636,9.99606 9.79176,18.35112 9.79176,19.22526 0,0.51859 1.0552,4.00522 2.3448,7.74808 6.8248,19.80723 10.8234,49.22383 11.1001,81.66108 0.048,5.59109 -0.087,11.20528 -0.2992,12.47598 -1.2618,7.55611 -1.6296,10.35132 -2.1275,16.17257 -0.3625,4.23764 -2.5353,12.31031 -6.2991,23.40351 -4.3393,12.78924 -7.8253,20.86217 -14.24146,32.98023 -4.6727,8.82517 -9.40827,17.27969 -10.52346,18.78783 -1.1152,1.50814 -2.0277,2.97058 -2.0277,3.24987 0,0.67848 -19.79865,29.75426 -23.058,33.86238 -1.41144,1.77899 -6.55612,8.54384 -11.43262,15.03302 -4.87651,6.48918 -9.38155,12.3113 -10.0112,12.93805 -0.62965,0.62676 -3.28297,3.84268 -5.89628,7.14651 -2.6133,3.30382 -9.23538,11.39424 -14.71573,17.9787 -5.90846,6.01342 -22.20235,25.13678 -22.20235,25.13678 z M 361.64808,620.12481 c 0.82515,-0.14925 5.38715,-0.54677 10.13776,-0.88335 9.48631,-0.67212 10.78189,-1.26408 16.31526,-3.27854 17.40313,-6.33573 9.66843,-3.85274 16.79343,-6.58995 7.12501,-2.73721 14.89875,-6.30886 17.27498,-7.937 2.37623,-1.62813 9.28697,-6.28603 15.35721,-10.35088 6.07023,-4.06486 12.58314,-8.76281 14.47312,-10.43989 1.88999,-1.67708 7.07248,-6.22452 11.51665,-10.10542 11.5699,-10.10347 12.41008,-10.90597 17.19766,-16.42636 2.37531,-2.7389 6.59609,-7.51689 9.3795,-10.61778 5.94275,-6.62059 21.54189,-29.02055 25.94207,-37.25215 1.68699,-3.15594 3.06726,-5.89842 3.06726,-6.09441 0,-0.76564 -61.19937,-1.57606 -124.11983,-1.64364 l -66.05672,-0.0709 -2.56331,2.17165 c -3.76051,3.18592 -19.97363,19.69091 -26.07646,26.54589 -5.24942,5.89638 -11.82508,14.4293 -14.19994,18.4266 -4.65515,7.83536 -8.32821,14.98737 -10.87078,21.167 -8.54961,20.77956 -13.63004,35.43745 -12.5961,36.34179 1.3102,1.14597 16.86937,6.12428 28.54947,9.13467 6.33416,1.63255 12.40434,3.3009 13.48931,3.70745 1.08495,0.40656 6.05151,1.25964 11.03679,1.89573 4.98527,0.63609 12.73506,1.69745 17.22175,2.35857 4.90129,0.7222 11.96439,1.00449 17.69415,0.70718 5.24507,-0.27216 10.21163,-0.61695 11.03677,-0.76621 z m 359.24653,-5.51724 c 4.87689,-0.73728 10.81052,-1.60206 13.18583,-1.92175 7.98015,-1.07405 13.06715,-2.16255 18.78721,-4.02001 3.12712,-1.01546 10.71815,-3.3377 16.86898,-5.16054 6.15083,-1.82285 11.41615,-3.89853 11.70072,-4.61262 1.25854,-3.15814 -17.29533,-45.32671 -23.59594,-53.628 -0.39154,-0.51588 -3.29383,-4.35448 -6.44952,-8.53022 -3.15569,-4.17574 -12.37075,-14.1085 -20.47792,-22.0728 l -14.74031,-14.48055 -92.29715,-0.45451 c -62.31757,-0.30688 -92.29716,-0.14878 -92.29716,0.48672 0,1.46435 8.19854,14.75912 13.52604,21.93387 2.64192,3.55797 6.18574,8.38531 7.87516,10.72743 4.85919,6.73651 22.89202,25.4573 30.96186,32.14307 14.89887,12.34354 21.94621,17.55013 35.45139,26.19153 13.90182,8.89518 16.94554,10.40994 32.15065,16.00031 9.23731,3.39622 17.8748,6.35594 19.19441,6.57715 5.15103,0.86348 21.12897,1.91331 30.96134,2.03431 5.68003,0.0699 14.31751,-0.47613 19.19441,-1.21339 z"
         id="path2996"
         style="fill:#000000"
         inkscape:connector-curvature="0"
         sodipodi:nodetypes="csssssssssssssssssssssssssssssssssscsssscssscssssssscsssssssssssssscssssssssssssssssscscssccscsssssssscssccsssssssssssscsssssssssssssscsscccccsssssssssscscsssssssscccsssssssssssscsssssscsssccsssssssscssssssssss" />
    </g>
  </g>
</svg>
