<?xml version="1.0" encoding="UTF-8" standalone="no"?>
<!-- Generator: Adobe Illustrator 16.0.0, SVG Export Plug-In . SVG Version: 6.00 Build 0)  -->

<svg
   xmlns:dc="http://purl.org/dc/elements/1.1/"
   xmlns:cc="http://creativecommons.org/ns#"
   xmlns:rdf="http://www.w3.org/1999/02/22-rdf-syntax-ns#"
   xmlns:svg="http://www.w3.org/2000/svg"
   xmlns="http://www.w3.org/2000/svg"
   xmlns:sodipodi="http://sodipodi.sourceforge.net/DTD/sodipodi-0.dtd"
   xmlns:inkscape="http://www.inkscape.org/namespaces/inkscape"
   version="1.1"
   x="0px"
   y="0px"
   width="64"
   height="64"
   viewBox="0 0 64 64"
   enable-background="new 0 0 50 50"
   xml:space="preserve"
   id="svg2"
   inkscape:version="0.48.4 r9939"
   sodipodi:docname="code_black.svg"><metadata
     id="metadata245"><rdf:RDF><cc:Work
         rdf:about=""><dc:format>image/svg+xml</dc:format><dc:type
           rdf:resource="http://purl.org/dc/dcmitype/StillImage" /></cc:Work></rdf:RDF></metadata><defs
     id="defs243" /><sodipodi:namedview
     pagecolor="#ffffff"
     bordercolor="#666666"
     borderopacity="1"
     objecttolerance="10"
     gridtolerance="10"
     guidetolerance="10"
     inkscape:pageopacity="0"
     inkscape:pageshadow="2"
     inkscape:window-width="1855"
     inkscape:window-height="1056"
     id="namedview241"
     showgrid="false"
     inkscape:zoom="4.72"
     inkscape:cx="25"
     inkscape:cy="25"
     inkscape:window-x="1985"
     inkscape:window-y="24"
     inkscape:window-maximized="1"
     inkscape:current-layer="svg2" /><g
     id="text"
     transform="translate(0,14)" /><g
     id="_x31_"
     transform="translate(0,14)" /><g
     id="_x32_"
     transform="translate(0,14)" /><g
     id="_x33__1_"
     transform="translate(0,14)" /><g
     id="_x34_"
     transform="translate(0,14)" /><g
     id="_x35_"
     transform="translate(0,14)" /><g
     id="_x36_"
     transform="translate(0,14)" /><g
     id="_x37_"
     transform="translate(0,14)" /><g
     id="_x38_"
     transform="translate(0,14)" /><g
     id="_x39_"
     transform="translate(0,14)" /><g
     id="_x31_0"
     transform="translate(0,14)" /><g
     id="_x31_1"
     transform="translate(0,14)" /><g
     id="_x31_2"
     transform="translate(0,14)" /><g
     id="_x31_3"
     transform="translate(0,14)" /><g
     id="_x31_4"
     transform="translate(0,14)" /><g
     id="_x31_5"
     transform="translate(0,14)" /><g
     id="_x31_6"
     transform="translate(0,14)" /><g
     id="_x31_7"
     transform="translate(0,14)" /><g
     id="_x31_8"
     transform="translate(0,14)" /><g
     id="_x31_9"
     transform="translate(0,14)" /><g
     id="_x32_0"
     transform="translate(0,14)" /><g
     id="_x32_1"
     transform="translate(0,14)" /><g
     id="_x32_2"
     transform="translate(0,14)" /><g
     id="_x32_3"
     transform="translate(0,14)" /><g
     id="_x32_4"
     transform="translate(0,14)" /><g
     id="_x32_5"
     transform="translate(0,14)" /><g
     id="_x32_6"
     transform="translate(0,14)" /><g
     id="_x32_7"
     transform="translate(0,14)" /><g
     id="_x32_8"
     transform="translate(0,14)" /><g
     id="_x32_9"
     transform="translate(0,14)" /><g
     id="_x33_0"
     transform="translate(0,14)" /><g
     id="_x33_1"
     transform="translate(0,14)" /><g
     id="_x33_2"
     transform="translate(0,14)" /><g
     id="_x33_3"
     transform="translate(0,14)" /><g
     id="_x33_4"
     transform="translate(0,14)" /><g
     id="_x33_5"
     transform="translate(0,14)" /><g
     id="_x33_6"
     transform="translate(0,14)" /><g
     id="_x33_7"
     transform="translate(0,14)" /><g
     id="_x33_8"
     transform="translate(0,14)" /><g
     id="_x33_9"
     transform="translate(0,14)" /><g
     id="_x34_0"
     transform="translate(0,14)" /><g
     id="_x34_1"
     transform="translate(0,14)" /><g
     id="_x34_2"
     transform="translate(0,14)" /><g
     id="_x34_3"
     transform="translate(0,14)" /><g
     id="_x34_4"
     transform="translate(0,14)" /><g
     id="_x34_5"
     transform="translate(0,14)" /><g
     id="_x34_6"
     transform="translate(0,14)" /><g
     id="_x34_7"
     transform="translate(0,14)" /><g
     id="_x34_8"
     transform="translate(0,14)" /><g
     id="_x34_9"
     transform="translate(0,14)" /><g
     id="_x35_0"
     transform="translate(0,14)" /><g
     id="_x35_1"
     transform="translate(0,14)" /><g
     id="_x35_2"
     transform="translate(0,14)" /><g
     id="_x35_3"
     transform="translate(0,14)" /><g
     id="_x35_4"
     transform="translate(0,14)" /><g
     id="_x35_5"
     transform="translate(0,14)" /><g
     id="_x35_6"
     transform="translate(0,14)" /><g
     id="_x35_7"
     transform="translate(0,14)" /><g
     id="_x35_8"
     transform="translate(0,14)" /><g
     id="_x35_9"
     transform="translate(0,14)" /><g
     id="_x36_0"
     transform="translate(0,14)" /><g
     id="_x36_1"
     transform="translate(0,14)" /><g
     id="_x36_2"
     transform="translate(0,14)" /><g
     id="_x36_3"
     transform="translate(0,14)" /><g
     id="_x36_4"
     transform="translate(0,14)" /><g
     id="_x36_5"
     transform="translate(0,14)" /><g
     id="_x36_6"
     transform="translate(0,14)" /><g
     id="_x36_7"
     transform="translate(0,14)" /><g
     id="_x36_8"
     transform="translate(0,14)" /><g
     id="_x36_9"
     transform="translate(0,14)" /><g
     id="_x37_0"
     transform="translate(0,14)" /><g
     id="_x37_1"
     transform="translate(0,14)" /><g
     id="_x37_2"
     transform="translate(0,14)" /><g
     id="_x37_3"
     transform="translate(0,14)" /><g
     id="_x37_4"
     transform="translate(0,14)" /><g
     id="_x37_5"
     transform="translate(0,14)" /><g
     id="_x37_6"
     transform="translate(0,14)" /><g
     id="_x37_7"
     transform="translate(0,14)" /><g
     id="_x37_8"
     transform="translate(0,14)" /><g
     id="_x37_9"
     transform="translate(0,14)" /><g
     id="_x38_0"
     transform="translate(0,14)" /><g
     id="_x38_1"
     transform="translate(0,14)" /><g
     id="_x38_2"
     transform="translate(0,14)" /><g
     id="_x38_3"
     transform="translate(0,14)" /><g
     id="_x38_4"
     transform="translate(0,14)" /><g
     id="_x38_5"
     transform="translate(0,14)" /><g
     id="_x38_6"
     transform="translate(0,14)" /><g
     id="_x38_7"
     transform="translate(0,14)" /><g
     id="_x38_8"
     transform="translate(0,14)" /><g
     id="_x38_9"
     transform="translate(0,14)" /><g
     id="_x39_0"
     transform="translate(0,14)" /><g
     id="_x39_1"
     transform="translate(0,14)" /><g
     id="_x39_2"
     transform="translate(0,14)" /><g
     id="_x39_3"
     transform="translate(0,14)" /><g
     id="_x39_4"
     transform="translate(0,14)" /><g
     id="_x39_5"
     transform="translate(0,14)" /><g
     id="_x39_6"
     transform="translate(0,14)" /><g
     id="_x39_7"
     transform="translate(0,14)" /><g
     id="_x39_8"
     transform="translate(0,14)" /><g
     id="_x39_9"
     transform="translate(0,14)" /><g
     id="_x31_00"
     transform="translate(0,14)" /><g
     id="_x31_01"
     transform="translate(0,14)" /><g
     id="_x31_02"
     transform="translate(0,14)" /><g
     id="_x31_03"
     transform="translate(0,14)" /><g
     id="_x31_04"
     transform="translate(0,14)" /><g
     id="_x31_05"
     transform="translate(0,14)" /><g
     id="_x31_06"
     transform="translate(0,14)" /><g
     id="_x31_07"
     transform="translate(0,14)" /><g
     id="_x31_08"
     transform="translate(0,14)" /><g
     id="_x31_09"
     transform="translate(0,14)" /><g
     id="_x31_10"
     transform="translate(0,14)" /><g
     id="_x31_11"
     transform="translate(0,14)" /><g
     id="_x31_12"
     transform="translate(0,14)" /><g
     id="_x31_13"
     transform="translate(0,14)" /><g
     id="_x31_14"
     transform="translate(0,14)" /><g
     id="_x31_15"
     transform="translate(0,14)" /><g
     id="_x31_16"
     transform="translate(0,14)" /><g
     id="_x31_17"
     transform="translate(0,14)" /><g
     id="_x31_18"
     transform="translate(0,14)" /><g
     id="_x31_19"
     transform="translate(0,14)" /><g
     id="_x31_20"
     transform="translate(0,14)" /><g
     id="_x31_21"
     transform="translate(0,14)" /><g
     id="_x31_22"
     transform="translate(0,14)" /><g
     id="_x31_23"
     transform="translate(0,14)" /><g
     id="_x31_24"
     transform="translate(0,14)" /><g
     id="_x31_25"
     transform="translate(0,14)" /><g
     id="_x31_26"
     transform="translate(0,14)" /><g
     id="_x31_27"
     transform="translate(0,14)" /><g
     id="_x31_28"
     transform="translate(0,14)" /><g
     id="_x31_29"
     transform="translate(0,14)" /><g
     id="_x31_30"
     transform="translate(0,14)" /><g
     id="_x31_31"
     transform="translate(0,14)" /><g
     id="_x31_32"
     transform="translate(0,14)" /><g
     id="_x31_33"
     transform="translate(0,14)" /><g
     id="_x31_34"
     transform="translate(0,14)" /><g
     id="_x31_35"
     transform="translate(0,14)" /><g
     id="_x31_36"
     transform="translate(0,14)" /><g
     id="_x31_37"
     transform="translate(0,14)" /><g
     id="_x31_38"
     transform="translate(0,14)" /><g
     id="_x31_39"
     transform="translate(0,14)" /><g
     id="_x31_40"
     transform="translate(0,14)" /><g
     id="_x31_41"
     transform="translate(0,14)" /><g
     id="_x31_42"
     transform="translate(0,14)" /><g
     id="_x31_43"
     transform="translate(0,14)" /><g
     id="_x31_44"
     transform="translate(0,14)" /><g
     id="_x31_45"
     transform="translate(0,14)" /><g
     id="_x31_46"
     transform="translate(0,14)" /><g
     id="_x31_47"
     transform="translate(0,14)" /><g
     id="_x31_48"
     transform="translate(0,14)" /><g
     id="_x31_49"
     transform="translate(0,14)" /><g
     id="_x31_50"
     transform="translate(0,14)" /><g
     id="_x31_51"
     transform="translate(0,14)" /><g
     id="_x31_52"
     transform="translate(0,14)" /><g
     id="_x31_53"
     transform="translate(0,14)" /><g
     id="_x31_54"
     transform="translate(0,14)" /><g
     id="_x31_55"
     transform="translate(0,14)" /><g
     id="_x31_56"
     transform="translate(0,14)" /><g
     id="_x31_57"
     transform="translate(0,14)" /><g
     id="_x31_58"
     transform="translate(0,14)" /><g
     id="_x31_59"
     transform="translate(0,14)" /><g
     id="_x31_60"
     transform="translate(0,14)" /><g
     id="_x31_61"
     transform="translate(0,14)" /><g
     id="_x31_62"
     transform="translate(0,14)" /><g
     id="_x31_63"
     transform="translate(0,14)" /><g
     id="_x31_64"
     transform="translate(0,14)" /><g
     id="_x31_65"
     transform="translate(0,14)" /><g
     id="_x31_66"
     transform="translate(0,14)" /><g
     id="_x31_67"
     transform="translate(0,14)" /><g
     id="_x31_68"
     transform="translate(0,14)" /><g
     id="_x31_69"
     transform="translate(0,14)" /><g
     id="_x31_70"
     transform="translate(0,14)" /><g
     id="_x31_71"
     transform="translate(0,14)" /><g
     id="_x31_72"
     transform="translate(0,14)" /><g
     id="_x31_73"
     transform="translate(0,14)" /><g
     id="_x31_74"
     transform="translate(0,14)" /><g
     id="_x31_75"
     transform="translate(0,14)" /><g
     id="_x31_76"
     transform="translate(0,14)" /><g
     id="_x31_77"
     transform="translate(0,14)" /><g
     id="_x31_78"
     transform="translate(0,14)" /><g
     id="_x31_79"
     transform="translate(0,14)" /><g
     id="_x31_80"
     transform="translate(0,14)" /><g
     id="_x31_81"
     transform="translate(0,14)" /><g
     id="_x31_82"
     transform="translate(0,14)" /><g
     id="_x31_83"
     transform="translate(0,14)" /><g
     id="_x31_84"
     transform="translate(0,14)" /><g
     id="_x31_85"
     transform="translate(0,14)" /><g
     id="_x31_86"
     style="fill:#333333;fill-opacity:1"
     transform="matrix(1.2534133,0,0,1.2534133,1.4028382,0.66466779)"><g
       id="g191"
       style="fill:#333333;fill-opacity:1"><path
         d="m 15.821,21.274 c 0,0 -0.063,-0.694 -0.094,-1.042 0.164,-0.094 0.321,-0.196 0.468,-0.31 0.261,0.15 0.781,0.451 0.781,0.451 l 0.887,-0.233 1.006,-1.739 -0.233,-0.887 c 0,0 -0.67,-0.389 -1.005,-0.581 -0.009,-0.193 -0.03,-0.385 -0.069,-0.569 0.266,-0.228 0.796,-0.682 0.796,-0.682 v -0.917 l -1.309,-1.526 h -0.917 c 0,0 -0.435,0.372 -0.652,0.559 -0.236,-0.114 -0.485,-0.208 -0.745,-0.279 -0.021,-0.258 -0.063,-0.775 -0.063,-0.775 l -0.648,-0.648 -2.003,0.162 -0.648,0.648 c 0,0 0.055,0.681 0.082,1.021 -0.196,0.111 -0.381,0.237 -0.554,0.378 -0.281,-0.13 -0.846,-0.387 -0.846,-0.387 L 9.168,14.15 8.329,15.978 8.3,16.103 8.563,16.865 c 0,0 0.654,0.299 0.982,0.449 0.014,0.216 0.047,0.425 0.101,0.63 -0.25,0.21 -0.749,0.635 -0.749,0.635 v 0.916 l 1.299,1.534 c 0,0 0.755,0.09 0.796,0.067 0.041,-0.022 0.122,-0.067 0.122,-0.067 0,0 0.475,-0.402 0.712,-0.604 0.2,0.09 0.409,0.165 0.626,0.224 0.024,0.27 0.074,0.809 0.074,0.809 l 0.648,0.648 2,-0.183 0.647,-0.649 z m -2.345,-2.152 c -1.116,0 -2.021,-0.905 -2.021,-2.021 0,-1.117 0.905,-2.022 2.021,-2.022 1.118,0 2.023,0.905 2.023,2.022 0,1.115 -0.905,2.021 -2.023,2.021 z"
         id="path193"
         style="fill:#333333;fill-opacity:1"
         inkscape:connector-curvature="0" /><path
         d="m 21.379,27.848 c 0,0 -0.048,-0.525 -0.071,-0.788 0.124,-0.071 0.243,-0.148 0.354,-0.234 0.197,0.113 0.59,0.341 0.59,0.341 l 0.671,-0.176 0.761,-1.315 -0.176,-0.67 c 0,0 -0.506,-0.294 -0.76,-0.439 -0.006,-0.146 -0.022,-0.291 -0.052,-0.43 0.201,-0.172 0.602,-0.516 0.602,-0.516 v -0.693 l -0.99,-1.154 h -0.694 c 0,0 -0.329,0.281 -0.493,0.422 -0.178,-0.086 -0.367,-0.157 -0.563,-0.211 -0.016,-0.195 -0.047,-0.586 -0.047,-0.586 l -0.49,-0.49 -1.514,0.123 -0.49,0.49 c 0,0 0.042,0.515 0.062,0.771 -0.148,0.084 -0.289,0.18 -0.419,0.286 -0.212,-0.098 -0.639,-0.292 -0.639,-0.292 l -0.671,0.176 -0.634,1.382 -0.022,0.094 0.199,0.576 c 0,0 0.495,0.226 0.742,0.339 0.011,0.164 0.036,0.321 0.077,0.477 -0.189,0.159 -0.566,0.479 -0.566,0.479 v 0.693 l 0.982,1.16 c 0,0 0.571,0.068 0.602,0.051 0.031,-0.017 0.092,-0.051 0.092,-0.051 0,0 0.359,-0.304 0.538,-0.456 0.151,0.068 0.309,0.125 0.474,0.169 0.019,0.204 0.056,0.611 0.056,0.611 l 0.49,0.49 1.512,-0.138 0.487,-0.491 z m -1.773,-1.627 c -0.844,0 -1.528,-0.685 -1.528,-1.528 0,-0.845 0.684,-1.529 1.528,-1.529 0.845,0 1.53,0.685 1.53,1.529 0,0.843 -0.685,1.528 -1.53,1.528 z"
         id="path195"
         style="fill:#333333;fill-opacity:1"
         inkscape:connector-curvature="0" /><path
         d="m 35.314,8.786 c -6.418,0 -12.835,0 -19.253,0 -1.612,0 -1.612,2.5 0,2.5 6.418,0 12.835,0 19.253,0 1.612,0 1.612,-2.5 0,-2.5 z"
         id="path197"
         style="fill:#333333;fill-opacity:1"
         inkscape:connector-curvature="0" /><path
         d="m 35.314,14.703 c -6.418,0 -2.835,0 -9.253,0 -1.612,0 -1.612,2.5 0,2.5 6.418,0 2.835,0 9.253,0 1.612,0 1.612,-2.5 0,-2.5 z"
         id="path199"
         style="fill:#333333;fill-opacity:1"
         inkscape:connector-curvature="0" /><polygon
         points="38.913,5.661 38.913,21.528 41.913,21.528 41.913,2.661 6.859,2.661 6.859,12.445 9.859,12.445 9.859,5.661 "
         id="polygon201"
         style="fill:#333333;fill-opacity:1" /><path
         d="m 36.631,38.454 c -0.004,-0.319 -0.029,-0.636 -0.084,-0.943 0.449,-0.361 1.349,-1.082 1.349,-1.082 l 0.049,-1.511 -2.077,-2.586 -1.513,-0.049 c 0,0 -0.737,0.592 -1.104,0.887 -0.383,-0.2 -0.788,-0.369 -1.213,-0.5 -0.021,-0.427 -0.063,-1.282 -0.063,-1.282 l -1.035,-1.102 -3.31,0.161 -1.103,1.034 c 0,0 0.054,1.125 0.081,1.687 -0.329,0.173 -0.641,0.372 -0.933,0.593 -0.457,-0.228 -1.374,-0.683 -1.374,-0.683 l -1.475,0.337 -1.479,2.97 -0.055,0.203 0.392,1.271 c 0,0 1.063,0.526 1.595,0.79 0.012,0.358 0.056,0.705 0.133,1.044 -0.423,0.334 -1.269,1.008 -1.269,1.008 l -0.049,1.509 2.06,2.597 c 0,0 1.24,0.189 1.308,0.154 0.068,-0.035 0.204,-0.105 0.204,-0.105 0,0 0.804,-0.637 1.206,-0.956 0.325,0.159 0.665,0.295 1.02,0.402 0.026,0.446 0.078,1.337 0.078,1.337 l 1.035,1.102 3.306,-0.194 1.103,-1.033 c 0,0 -0.066,-1.149 -0.1,-1.723 0.274,-0.146 0.539,-0.307 0.789,-0.487 0.421,0.262 1.263,0.786 1.263,0.786 l 1.475,-0.338 1.752,-2.814 -0.337,-1.475 c 10e-4,10e-4 -1.083,-0.673 -1.625,-1.009 z m -6.966,3.386 c -1.84,-0.059 -3.284,-1.599 -3.224,-3.439 0.059,-1.843 1.599,-3.286 3.439,-3.227 1.842,0.06 3.286,1.599 3.227,3.442 -0.06,1.841 -1.6,3.284 -3.442,3.224 z"
         id="path203"
         style="fill:#333333;fill-opacity:1"
         inkscape:connector-curvature="0" /><path
         d="m 42.778,31.402 c 0,0 -1.166,-0.725 -1.75,-1.087 -0.004,-0.343 -0.031,-0.683 -0.09,-1.012 0.484,-0.389 1.452,-1.165 1.452,-1.165 l 0.053,-1.625 -2.235,-2.782 -1.626,-0.053 c 0,0 -0.793,0.635 -1.188,0.955 -0.412,-0.217 -0.848,-0.399 -1.306,-0.539 -0.022,-0.46 -0.067,-1.379 -0.067,-1.379 l -1.112,-1.187 -3.561,0.174 -1.187,1.112 c 0,0 0.059,1.209 0.087,1.813 -0.354,0.187 -0.689,0.4 -1.003,0.639 -0.491,-0.245 -1.479,-0.734 -1.479,-0.734 l -1.585,0.363 -1.592,3.193 -0.06,0.219 0.423,1.367 c 0,0 0.746,0.37 1.334,0.662 l 0.661,-0.619 0.269,-0.251 0.367,-0.018 2.657,-0.129 c 0.465,-1.506 1.877,-2.583 3.528,-2.53 1.981,0.063 3.535,1.719 3.471,3.7 -0.017,0.533 -0.157,1.031 -0.38,1.479 l 1.866,2.324 0.232,0.289 -0.012,0.37 -0.031,0.958 c 0.386,0.24 0.757,0.471 0.757,0.471 l 1.586,-0.363 1.884,-3.026 -0.363,-1.589 z"
         id="path205"
         style="fill:#333333;fill-opacity:1"
         inkscape:connector-curvature="0" /><path
         d="m 8.588,27.851 c 0.294,0 0.537,-0.08 0.73,-0.238 C 9.511,27.455 9.657,27.231 9.754,26.942 9.851,26.652 9.9,26.271 9.9,25.798 9.9,25.4 9.869,25.082 9.81,24.848 9.749,24.612 9.665,24.413 9.56,24.248 9.452,24.085 9.318,23.959 9.156,23.873 8.993,23.787 8.804,23.743 8.588,23.743 c -0.293,0 -0.536,0.078 -0.729,0.236 -0.193,0.157 -0.339,0.38 -0.438,0.67 -0.096,0.291 -0.146,0.673 -0.146,1.149 0,0.756 0.132,1.301 0.396,1.636 0.223,0.277 0.528,0.417 0.917,0.417 z M 8.039,24.439 c 0.135,-0.192 0.317,-0.289 0.544,-0.289 0.23,0 0.422,0.109 0.578,0.326 0.154,0.218 0.232,0.658 0.232,1.32 0,0.659 -0.078,1.098 -0.232,1.317 -0.155,0.22 -0.346,0.33 -0.572,0.33 -0.227,0 -0.418,-0.11 -0.572,-0.329 C 7.862,26.896 7.785,26.456 7.785,25.796 7.783,25.137 7.868,24.684 8.039,24.439 z"
         id="path207"
         style="fill:#333333;fill-opacity:1"
         inkscape:connector-curvature="0" /><path
         d="m 11.504,24.28 c -0.207,0.185 -0.449,0.342 -0.725,0.473 v 0.477 c 0.154,-0.056 0.328,-0.141 0.521,-0.255 0.193,-0.113 0.348,-0.227 0.467,-0.339 v 3.147 h 0.494 v -4.04 h -0.319 c -0.085,0.174 -0.231,0.352 -0.438,0.537 z"
         id="path209"
         style="fill:#333333;fill-opacity:1"
         inkscape:connector-curvature="0" /><path
         d="M 9.654,30.248 C 9.547,30.085 9.414,29.959 9.25,29.873 9.087,29.787 8.898,29.743 8.682,29.743 c -0.292,0 -0.536,0.078 -0.729,0.236 -0.193,0.157 -0.337,0.38 -0.436,0.67 -0.097,0.29 -0.147,0.673 -0.147,1.148 0,0.756 0.133,1.301 0.398,1.636 0.221,0.278 0.525,0.417 0.914,0.417 0.294,0 0.538,-0.08 0.732,-0.238 0.191,-0.158 0.337,-0.382 0.435,-0.671 0.097,-0.29 0.146,-0.671 0.146,-1.144 0,-0.398 -0.03,-0.716 -0.09,-0.95 C 9.843,30.611 9.759,30.412 9.654,30.248 z m -0.4,2.866 c -0.155,0.22 -0.345,0.33 -0.572,0.33 -0.227,0 -0.417,-0.11 -0.572,-0.329 -0.155,-0.218 -0.23,-0.658 -0.23,-1.318 0,-0.66 0.083,-1.113 0.253,-1.358 0.135,-0.192 0.317,-0.289 0.544,-0.289 0.231,0 0.423,0.109 0.578,0.326 0.155,0.218 0.232,0.658 0.232,1.32 -10e-4,0.661 -0.078,1.099 -0.233,1.318 z"
         id="path211"
         style="fill:#333333;fill-opacity:1"
         inkscape:connector-curvature="0" /><path
         d="m 12.356,33.782 v -4.04 h -0.319 c -0.085,0.174 -0.232,0.353 -0.438,0.538 -0.206,0.185 -0.448,0.342 -0.724,0.473 v 0.477 c 0.153,-0.056 0.327,-0.141 0.52,-0.255 0.193,-0.113 0.349,-0.227 0.467,-0.339 v 3.147 h 0.494 z"
         id="path213"
         style="fill:#333333;fill-opacity:1"
         inkscape:connector-curvature="0" /><path
         d="m 15.064,33.782 v -4.04 h -0.318 c -0.085,0.174 -0.232,0.353 -0.438,0.538 -0.206,0.185 -0.448,0.342 -0.724,0.473 v 0.477 c 0.152,-0.056 0.327,-0.141 0.52,-0.255 0.193,-0.113 0.35,-0.227 0.467,-0.339 v 3.147 h 0.493 z"
         id="path215"
         style="fill:#333333;fill-opacity:1"
         inkscape:connector-curvature="0" /><path
         d="m 18.613,30.248 c -0.107,-0.163 -0.24,-0.289 -0.404,-0.375 -0.163,-0.086 -0.352,-0.13 -0.567,-0.13 -0.293,0 -0.537,0.078 -0.73,0.236 -0.193,0.157 -0.337,0.38 -0.436,0.67 -0.097,0.291 -0.146,0.673 -0.146,1.149 0,0.756 0.132,1.301 0.397,1.636 0.221,0.278 0.526,0.417 0.915,0.417 0.293,0 0.537,-0.08 0.73,-0.238 0.193,-0.158 0.337,-0.382 0.435,-0.671 0.097,-0.29 0.147,-0.671 0.147,-1.144 0,-0.398 -0.031,-0.716 -0.092,-0.95 -0.059,-0.237 -0.142,-0.436 -0.249,-0.6 z m -0.4,2.866 c -0.155,0.22 -0.345,0.33 -0.571,0.33 -0.228,0 -0.418,-0.11 -0.574,-0.329 -0.155,-0.218 -0.23,-0.658 -0.23,-1.318 0,-0.66 0.085,-1.113 0.253,-1.358 0.137,-0.192 0.317,-0.289 0.544,-0.289 0.231,0 0.423,0.109 0.578,0.326 0.155,0.218 0.232,0.658 0.232,1.32 0.001,0.661 -0.076,1.099 -0.232,1.318 z"
         id="path217"
         style="fill:#333333;fill-opacity:1"
         inkscape:connector-curvature="0" /><path
         d="M 9.654,36.993 C 9.547,36.829 9.414,36.704 9.25,36.617 9.087,36.531 8.898,36.487 8.682,36.487 8.39,36.487 8.146,36.566 7.953,36.723 7.76,36.88 7.616,37.104 7.517,37.393 7.42,37.684 7.37,38.066 7.37,38.542 c 0,0.757 0.133,1.302 0.398,1.636 0.221,0.278 0.525,0.418 0.914,0.418 0.294,0 0.538,-0.079 0.732,-0.238 0.191,-0.158 0.337,-0.382 0.435,-0.672 0.097,-0.289 0.146,-0.671 0.146,-1.144 0,-0.397 -0.03,-0.716 -0.09,-0.95 C 9.843,37.356 9.759,37.157 9.654,36.993 z m -0.4,2.867 C 9.099,40.079 8.909,40.189 8.682,40.189 8.455,40.189 8.265,40.08 8.11,39.861 7.955,39.642 7.88,39.203 7.88,38.542 c 0,-0.659 0.083,-1.112 0.253,-1.357 0.135,-0.192 0.317,-0.289 0.544,-0.289 0.231,0 0.423,0.109 0.578,0.326 0.155,0.218 0.232,0.658 0.232,1.32 -10e-4,0.659 -0.078,1.098 -0.233,1.318 z"
         id="path219"
         style="fill:#333333;fill-opacity:1"
         inkscape:connector-curvature="0" /><path
         d="m 12.78,36.993 c -0.108,-0.164 -0.242,-0.289 -0.404,-0.376 -0.163,-0.086 -0.352,-0.13 -0.568,-0.13 -0.292,0 -0.536,0.079 -0.729,0.236 -0.193,0.157 -0.339,0.381 -0.438,0.67 -0.097,0.291 -0.146,0.672 -0.146,1.148 0,0.757 0.132,1.302 0.396,1.636 0.222,0.278 0.526,0.418 0.915,0.418 0.294,0 0.538,-0.079 0.73,-0.238 0.193,-0.158 0.339,-0.382 0.436,-0.672 0.097,-0.289 0.146,-0.671 0.146,-1.144 0,-0.397 -0.031,-0.716 -0.09,-0.95 -0.059,-0.235 -0.143,-0.434 -0.248,-0.598 z m -0.4,2.867 c -0.155,0.219 -0.345,0.329 -0.572,0.329 -0.227,0 -0.418,-0.109 -0.572,-0.328 -0.155,-0.219 -0.232,-0.658 -0.232,-1.319 0,-0.659 0.085,-1.112 0.255,-1.357 0.135,-0.192 0.317,-0.289 0.544,-0.289 0.231,0 0.423,0.109 0.578,0.326 0.154,0.218 0.232,0.658 0.232,1.32 -10e-4,0.659 -0.079,1.098 -0.233,1.318 z"
         id="path221"
         style="fill:#333333;fill-opacity:1"
         inkscape:connector-curvature="0" /><path
         d="m 15.904,36.993 c -0.106,-0.164 -0.24,-0.289 -0.402,-0.376 -0.165,-0.086 -0.354,-0.13 -0.568,-0.13 -0.292,0 -0.536,0.079 -0.729,0.236 -0.194,0.157 -0.339,0.381 -0.438,0.67 -0.097,0.291 -0.146,0.672 -0.146,1.148 0,0.757 0.132,1.302 0.396,1.636 0.222,0.278 0.526,0.418 0.915,0.418 0.293,0 0.538,-0.079 0.73,-0.238 0.193,-0.158 0.337,-0.382 0.435,-0.672 0.097,-0.289 0.147,-0.671 0.147,-1.144 0,-0.397 -0.031,-0.716 -0.092,-0.95 -0.057,-0.235 -0.141,-0.434 -0.248,-0.598 z m -0.399,2.867 c -0.154,0.219 -0.346,0.329 -0.571,0.329 -0.228,0 -0.418,-0.109 -0.573,-0.328 -0.155,-0.219 -0.231,-0.658 -0.231,-1.319 0,-0.659 0.085,-1.112 0.254,-1.357 0.136,-0.192 0.318,-0.289 0.544,-0.289 0.23,0 0.423,0.109 0.578,0.326 0.155,0.218 0.233,0.658 0.233,1.32 -0.001,0.659 -0.079,1.098 -0.234,1.318 z"
         id="path223"
         style="fill:#333333;fill-opacity:1"
         inkscape:connector-curvature="0" /><path
         d="m 18.609,40.527 v -4.04 h -0.318 c -0.086,0.174 -0.233,0.353 -0.44,0.538 -0.207,0.185 -0.448,0.342 -0.724,0.473 v 0.477 c 0.154,-0.057 0.327,-0.142 0.52,-0.255 0.193,-0.114 0.35,-0.228 0.467,-0.34 v 3.148 h 0.495 z"
         id="path225"
         style="fill:#333333;fill-opacity:1"
         inkscape:connector-curvature="0" /><path
         d="m 21.276,43.573 c -0.207,0.185 -0.449,0.342 -0.725,0.473 v 0.477 c 0.154,-0.057 0.328,-0.141 0.521,-0.254 0.193,-0.113 0.348,-0.227 0.467,-0.34 v 3.147 h 0.494 v -4.041 h -0.319 c -0.086,0.174 -0.232,0.353 -0.438,0.538 z"
         id="path227"
         style="fill:#333333;fill-opacity:1"
         inkscape:connector-curvature="0" /><path
         d="M 9.654,43.738 C 9.547,43.574 9.414,43.449 9.25,43.362 9.087,43.275 8.898,43.231 8.682,43.231 c -0.292,0 -0.536,0.079 -0.729,0.236 -0.193,0.157 -0.337,0.382 -0.436,0.67 -0.097,0.292 -0.147,0.674 -0.147,1.15 0,0.756 0.133,1.3 0.398,1.636 0.221,0.276 0.525,0.416 0.914,0.416 0.294,0 0.538,-0.078 0.732,-0.237 0.191,-0.157 0.337,-0.383 0.435,-0.673 0.097,-0.289 0.146,-0.671 0.146,-1.142 0,-0.399 -0.03,-0.717 -0.09,-0.951 C 9.843,44.1 9.759,43.902 9.654,43.738 z m -0.4,2.867 c -0.155,0.219 -0.345,0.329 -0.572,0.329 -0.227,0 -0.417,-0.11 -0.572,-0.329 -0.155,-0.219 -0.23,-0.657 -0.23,-1.317 0,-0.661 0.083,-1.113 0.253,-1.359 0.135,-0.192 0.317,-0.287 0.544,-0.287 0.231,0 0.423,0.107 0.578,0.326 0.155,0.216 0.232,0.657 0.232,1.32 -10e-4,0.658 -0.078,1.097 -0.233,1.317 z"
         id="path229"
         style="fill:#333333;fill-opacity:1"
         inkscape:connector-curvature="0" /><path
         d="m 11.599,43.769 c -0.207,0.185 -0.448,0.342 -0.724,0.473 v 0.477 c 0.153,-0.057 0.327,-0.141 0.52,-0.254 0.193,-0.113 0.349,-0.227 0.467,-0.34 v 3.147 h 0.494 v -4.041 h -0.319 c -0.085,0.175 -0.232,0.353 -0.438,0.538 z"
         id="path231"
         style="fill:#333333;fill-opacity:1"
         inkscape:connector-curvature="0" /><path
         d="m 14.308,43.769 c -0.207,0.185 -0.448,0.342 -0.724,0.473 v 0.477 c 0.152,-0.057 0.327,-0.141 0.52,-0.254 0.193,-0.113 0.35,-0.227 0.467,-0.34 v 3.147 h 0.494 v -4.041 h -0.318 c -0.086,0.175 -0.233,0.353 -0.439,0.538 z"
         id="path233"
         style="fill:#333333;fill-opacity:1"
         inkscape:connector-curvature="0" /><path
         d="m 18.613,43.738 c -0.107,-0.164 -0.24,-0.289 -0.404,-0.376 -0.163,-0.087 -0.352,-0.131 -0.567,-0.131 -0.293,0 -0.537,0.079 -0.73,0.236 -0.193,0.157 -0.337,0.382 -0.436,0.67 -0.097,0.292 -0.146,0.674 -0.146,1.15 0,0.756 0.132,1.3 0.397,1.636 0.221,0.276 0.526,0.416 0.915,0.416 0.293,0 0.537,-0.078 0.73,-0.237 0.193,-0.157 0.337,-0.383 0.435,-0.673 0.097,-0.289 0.147,-0.671 0.147,-1.142 0,-0.399 -0.031,-0.717 -0.092,-0.951 C 18.803,44.1 18.72,43.902 18.613,43.738 z m -0.4,2.867 c -0.155,0.219 -0.345,0.329 -0.571,0.329 -0.228,0 -0.418,-0.11 -0.574,-0.329 -0.155,-0.219 -0.23,-0.657 -0.23,-1.317 0,-0.661 0.085,-1.113 0.253,-1.359 0.137,-0.192 0.317,-0.287 0.544,-0.287 0.231,0 0.423,0.107 0.578,0.326 0.155,0.216 0.232,0.657 0.232,1.32 0.001,0.658 -0.076,1.097 -0.232,1.317 z"
         id="path235"
         style="fill:#333333;fill-opacity:1"
         inkscape:connector-curvature="0" /></g></g><g
     id="_x31_87"
     transform="translate(0,14)" /><g
     id="_x31_88"
     transform="translate(0,14)" /><g
     id="_x31_89"
     transform="translate(0,14)" /><g
     id="_x31_90"
     transform="translate(0,14)" /></svg>