<?xml version="1.0" encoding="UTF-8" standalone="no"?>
<!-- Generator: Adobe Illustrator 17.1.0, SVG Export Plug-In . SVG Version: 6.00 Build 0)  -->

<svg
   xmlns:dc="http://purl.org/dc/elements/1.1/"
   xmlns:cc="http://creativecommons.org/ns#"
   xmlns:rdf="http://www.w3.org/1999/02/22-rdf-syntax-ns#"
   xmlns:svg="http://www.w3.org/2000/svg"
   xmlns="http://www.w3.org/2000/svg"
   xmlns:sodipodi="http://sodipodi.sourceforge.net/DTD/sodipodi-0.dtd"
   xmlns:inkscape="http://www.inkscape.org/namespaces/inkscape"
   version="1.1"
   id="Capa_1"
   x="0px"
   y="0px"
   width="64"
   height="64"
   viewBox="0 0 64 64"
   enable-background="new 0 0 500 500"
   xml:space="preserve"
   inkscape:version="0.48.4 r9939"
   sodipodi:docname="coffee49.svg"><metadata
     id="metadata9"><rdf:RDF><cc:Work
         rdf:about=""><dc:format>image/svg+xml</dc:format><dc:type
           rdf:resource="http://purl.org/dc/dcmitype/StillImage" /></cc:Work></rdf:RDF></metadata><defs
     id="defs7" /><sodipodi:namedview
     pagecolor="#ffffff"
     bordercolor="#666666"
     borderopacity="1"
     objecttolerance="10"
     gridtolerance="10"
     guidetolerance="10"
     inkscape:pageopacity="0"
     inkscape:pageshadow="2"
     inkscape:window-width="1084"
     inkscape:window-height="835"
     id="namedview5"
     showgrid="false"
     inkscape:zoom="5.3400704"
     inkscape:cx="37.941986"
     inkscape:cy="33.014667"
     inkscape:window-x="75"
     inkscape:window-y="34"
     inkscape:window-maximized="0"
     inkscape:current-layer="Capa_1" /><path
     d="m 48.246873,51.940012 v -7.24349 h 6.590294 c 1.329723,0 2.414497,-1.084774 2.414497,-2.414497 V 26.30202 c 0,-1.329723 -1.084774,-2.414497 -2.414497,-2.414497 H 48.246873 V 19.711727 H 13.452456 V 51.940012 H 30.855497 48.246873 z M 52.434334,28.716517 V 39.867528 H 48.258538 V 28.716517 h 4.175796 z M 21.33748,9.1672568 c 0.30327,0.8748182 0.758175,1.6679862 1.178088,2.4844822 0.454905,0.886482 0.921474,1.772964 1.376379,2.659446 -0.01166,-0.03499 -0.02333,-0.05832 -0.03499,-0.09331 0.314934,0.723183 0.174963,1.598001 -0.268278,2.239534 -0.151635,0.233284 -0.349927,0.396584 -0.536555,0.559883 -0.04666,0.03499 -0.09331,0.06998 -0.13997,0.09331 -0.04666,0.03499 -0.09331,0.05832 -0.128307,0.09331 -0.04666,0.03499 -0.08165,0.05832 -0.116642,0.06999 -0.03499,0.02333 -0.06999,0.04666 -0.104979,0.05832 -0.13997,0.06999 -0.209956,0.116643 -0.209956,0.116643 0,0 0.01166,0.01166 0.04666,0.04666 0.02333,0.02333 0.06999,0.06998 0.128307,0.116642 0.116642,0.104978 0.30327,0.233285 0.583212,0.373256 0.279941,0.116642 0.641533,0.233284 1.096438,0.233284 0.454905,0.01166 0.99146,-0.06999 1.528015,-0.326598 C 27.612839,17.017288 28.441,14.882733 28.196051,12.911477 28.009423,11.430119 27.274576,10.042075 26.318109,8.8873151 25.851539,8.3157675 25.326649,7.8025411 24.825086,7.2659862 24.428502,6.8344095 24.020254,6.36784 23.775305,5.8196209 23.518692,5.2364091 23.530356,4.6765257 23.635334,4.0583212 c 0,-0.034993 0.01166,-0.058321 0.01166,-0.058321 0,0 -0.02333,0 -0.05832,0.011664 -0.664861,0.093314 -1.259737,0.443241 -1.691314,0.9681317 -0.291606,0.3499271 -0.548219,0.8281608 -0.68819,1.3997084 -0.139971,0.5715476 -0.163299,1.2014163 -0.06998,1.8312851 0.02333,0.3265986 0.09331,0.6531973 0.198292,0.9564674 z m 12.317433,0 c 0.303271,0.8748182 0.758176,1.6679862 1.178088,2.4844822 0.454906,0.886482 0.921475,1.772964 1.37638,2.659446 -0.01166,-0.03499 -0.02333,-0.05832 -0.03499,-0.09331 0.314934,0.723183 0.174963,1.598001 -0.268278,2.239534 -0.151635,0.233284 -0.349927,0.396584 -0.536555,0.559883 -0.04666,0.03499 -0.09331,0.06998 -0.139971,0.09331 -0.04666,0.03499 -0.09331,0.05832 -0.128306,0.09331 -0.04666,0.03499 -0.08165,0.05832 -0.116643,0.06999 -0.03499,0.02333 -0.06998,0.04666 -0.104978,0.05832 -0.139971,0.06999 -0.209956,0.116643 -0.209956,0.116643 0,0 0.01166,0.01166 0.04666,0.04666 0.02333,0.02333 0.06998,0.06998 0.128307,0.116642 0.116642,0.104978 0.30327,0.233285 0.583211,0.373256 0.279942,0.116642 0.641533,0.233284 1.096439,0.233284 0.454905,0.01166 0.99146,-0.06999 1.528015,-0.326598 1.877942,-0.874818 2.706103,-3.009373 2.461154,-4.980629 C 40.326857,11.430119 39.59201,10.042075 38.635543,8.8873151 38.168973,8.3157675 37.644082,7.8025411 37.14252,7.2659862 36.745936,6.8344095 36.337688,6.36784 36.092739,5.8196209 35.836126,5.2364091 35.84779,4.6765257 35.952768,4.0583212 c 0,-0.034993 0.01166,-0.058321 0.01166,-0.058321 0,0 -0.02333,0 -0.05832,0.011664 -0.664861,0.093314 -1.259737,0.443241 -1.691314,0.9681317 -0.291606,0.3499271 -0.548219,0.8281608 -0.68819,1.3997084 -0.139971,0.5715476 -0.163299,1.2014163 -0.06999,1.8312851 0.02333,0.3265986 0.09331,0.6531973 0.198292,0.9564674 z M 30.843832,60 c 0.01166,0 0.01166,0 0,0 0.01166,0 0.01166,0 0,0 0.349928,0 20.354093,-0.02333 22.791919,-5.680483 0.268277,-0.618205 -0.30327,-1.178088 -0.968132,-1.178088 H 48.246873 30.855497 13.452456 9.0317102 c -0.664862,0 -1.2247447,0.559883 -0.968132,1.178088 C 10.501404,59.976672 30.50557,60 30.843832,60 z"
     id="path3"
     inkscape:connector-curvature="0"
     style="fill:#333333;fill-opacity:1" /></svg>