<?xml version="1.0" encoding="UTF-8" standalone="no"?>
<!-- Generator: Adobe Illustrator 16.0.0, SVG Export Plug-In . SVG Version: 6.00 Build 0)  -->

<svg
   xmlns:dc="http://purl.org/dc/elements/1.1/"
   xmlns:cc="http://creativecommons.org/ns#"
   xmlns:rdf="http://www.w3.org/1999/02/22-rdf-syntax-ns#"
   xmlns:svg="http://www.w3.org/2000/svg"
   xmlns="http://www.w3.org/2000/svg"
   xmlns:sodipodi="http://sodipodi.sourceforge.net/DTD/sodipodi-0.dtd"
   xmlns:inkscape="http://www.inkscape.org/namespaces/inkscape"
   version="1.1"
   id="Layer_1"
   x="0px"
   y="0px"
   width="64"
   height="64"
   viewBox="0 0 64 64"
   enable-background="new 0 0 512 512"
   xml:space="preserve"
   inkscape:version="0.48.4 r9939"
   sodipodi:docname="magnifier.svg"><metadata
     id="metadata15"><rdf:RDF><cc:Work
         rdf:about=""><dc:format>image/svg+xml</dc:format><dc:type
           rdf:resource="http://purl.org/dc/dcmitype/StillImage" /></cc:Work></rdf:RDF></metadata><defs
     id="defs13" /><sodipodi:namedview
     pagecolor="#ffffff"
     bordercolor="#ffffff"
     borderopacity="1"
     objecttolerance="10"
     gridtolerance="10"
     guidetolerance="10"
     inkscape:pageopacity="1"
     inkscape:pageshadow="2"
     inkscape:window-width="1920"
     inkscape:window-height="1014"
     id="namedview11"
     showgrid="false"
     inkscape:zoom="7.375"
     inkscape:cx="11.042629"
     inkscape:cy="50.316541"
     inkscape:window-x="0"
     inkscape:window-y="27"
     inkscape:window-maximized="1"
     inkscape:current-layer="Layer_1" /><g
     id="g3"
     transform="scale(0.12499988,0.12499988)"
     style="fill:#000000;fill-opacity:1"><path
       d="M 497.938,430.063 380.469,312.594 c -17.5,27.219 -40.656,50.375 -67.875,67.875 l 117.469,117.469 c 18.75,18.75 49.156,18.75 67.875,0 18.75,-18.719 18.75,-49.125 0,-67.875 z"
       id="path5"
       inkscape:connector-curvature="0"
       style="fill:#000000;fill-opacity:1" /><path
       d="M 384,192 C 384,85.969 298.031,0 192,0 85.969,0 0,85.969 0,192 0,298.031 85.969,384 192,384 298.031,384 384,298.031 384,192 z M 192,336 C 112.594,336 48,271.406 48,192 48,112.594 112.594,48 192,48 c 79.406,0 144,64.594 144,144 0,79.406 -64.594,144 -144,144 z"
       id="path7"
       inkscape:connector-curvature="0"
       style="fill:#000000;fill-opacity:1" /><path
       d="m 80,192 h 32 c 0,-44.109 35.891,-80 80,-80 V 80 C 130.25,80 80,130.25 80,192 z"
       id="path9"
       inkscape:connector-curvature="0"
       style="fill:#000000;fill-opacity:1" /></g></svg>