<?xml version="1.0" encoding="UTF-8" standalone="no"?>
<!-- Generator: Adobe Illustrator 16.0.0, SVG Export Plug-In . SVG Version: 6.00 Build 0)  -->

<svg
   xmlns:dc="http://purl.org/dc/elements/1.1/"
   xmlns:cc="http://creativecommons.org/ns#"
   xmlns:rdf="http://www.w3.org/1999/02/22-rdf-syntax-ns#"
   xmlns:svg="http://www.w3.org/2000/svg"
   xmlns="http://www.w3.org/2000/svg"
   xmlns:sodipodi="http://sodipodi.sourceforge.net/DTD/sodipodi-0.dtd"
   xmlns:inkscape="http://www.inkscape.org/namespaces/inkscape"
   version="1.1"
   id="Layer_1"
   x="0px"
   y="0px"
   width="64"
   height="64"
   viewBox="0 0 64 64"
   xml:space="preserve"
   inkscape:version="0.48.4 r9939"
   sodipodi:docname="plug.svg"><metadata
     id="metadata13"><rdf:RDF><cc:Work
         rdf:about=""><dc:format>image/svg+xml</dc:format><dc:type
           rdf:resource="http://purl.org/dc/dcmitype/StillImage" /></cc:Work></rdf:RDF></metadata><defs
     id="defs11" /><sodipodi:namedview
     pagecolor="#ffffff"
     bordercolor="#000000"
     borderopacity="0"
     objecttolerance="10"
     gridtolerance="10"
     guidetolerance="10"
     inkscape:pageopacity="0"
     inkscape:pageshadow="2"
     inkscape:window-width="1920"
     inkscape:window-height="1014"
     id="namedview9"
     showgrid="false"
     inkscape:zoom="3.6875"
     inkscape:cx="86.808951"
     inkscape:cy="16.718027"
     inkscape:window-x="1920"
     inkscape:window-y="27"
     inkscape:window-maximized="1"
     inkscape:current-layer="Layer_1" /><g
     id="g3"
     transform="matrix(0.14894117,0,0,0.14894138,-6.1289289,-6.1287423)"><path
       d="m 274.287,275.511 -30.939,30.939 -37.799,-37.799 30.939,-30.939 c 6.856,-6.855 6.856,-18.012 0,-24.867 -6.855,-6.856 -18.011,-6.856 -24.867,0 l -30.94,30.939 -15.539,-15.538 c -4.12,-4.122 -10.801,-4.121 -14.921,0 l -22.446,22.445 c -4.12,4.12 -4.12,10.8 0,14.921 l 3.35,3.35 -50.72,50.718 c -2.361,2.362 -3.465,5.702 -2.976,9.005 l 7.816,52.813 -41.005,41.005 c -4.12,4.119 -4.12,10.8 0,14.92 l 30.337,30.336 c 4.12,4.121 10.8,4.121 14.92,0 l 41.006,-41.006 52.813,7.817 c 3.303,0.489 6.644,-0.614 9.004,-2.976 l 50.719,-50.719 3.35,3.35 c 4.12,4.119 10.801,4.119 14.921,0 l 22.446,-22.447 c 4.12,-4.118 4.12,-10.801 0,-14.92 l -15.539,-15.539 30.939,-30.94 c 6.856,-6.856 6.856,-18.012 0,-24.868 -6.857,-6.856 -18.012,-6.856 -24.869,0 z"
       id="path5"
       inkscape:connector-curvature="0" /><path
       d="M 467.76,74.578 437.423,44.239 c -4.119,-4.118 -10.8,-4.118 -14.92,0 l -41.006,41.007 -52.813,-7.817 c -3.303,-0.488 -6.643,0.615 -9.004,2.977 l -50.719,50.719 -3.35,-3.35 c -4.12,-4.12 -10.8,-4.121 -14.921,0 l -22.446,22.446 c -4.12,4.12 -4.12,10.8 0,14.921 l 118.613,118.613 c 4.12,4.119 10.801,4.119 14.921,0 l 22.446,-22.447 c 4.12,-4.12 4.12,-10.801 0,-14.92 l -3.35,-3.35 50.719,-50.719 c 2.361,-2.361 3.465,-5.7 2.976,-9.004 l -7.816,-52.813 41.006,-41.006 c 4.121,-4.119 4.121,-10.8 10e-4,-14.918 z"
       id="path7"
       inkscape:connector-curvature="0" /></g></svg>