<?xml version="1.0" encoding="UTF-8" standalone="no"?>
<!-- Generator: Adobe Illustrator 16.0.4, SVG Export Plug-In . SVG Version: 6.00 Build 0)  -->

<svg
   xmlns:dc="http://purl.org/dc/elements/1.1/"
   xmlns:cc="http://creativecommons.org/ns#"
   xmlns:rdf="http://www.w3.org/1999/02/22-rdf-syntax-ns#"
   xmlns:svg="http://www.w3.org/2000/svg"
   xmlns="http://www.w3.org/2000/svg"
   xmlns:sodipodi="http://sodipodi.sourceforge.net/DTD/sodipodi-0.dtd"
   xmlns:inkscape="http://www.inkscape.org/namespaces/inkscape"
   version="1.1"
   id="Capa_1"
   x="0px"
   y="0px"
   width="64"
   height="64"
   viewBox="0 0 64 64"
   enable-background="new 0 0 612 792"
   xml:space="preserve"
   inkscape:version="0.48.4 r9939"
   sodipodi:docname="plus.svg"><metadata
     id="metadata9"><rdf:RDF><cc:Work
         rdf:about=""><dc:format>image/svg+xml</dc:format><dc:type
           rdf:resource="http://purl.org/dc/dcmitype/StillImage" /></cc:Work></rdf:RDF></metadata><defs
     id="defs7" /><sodipodi:namedview
     pagecolor="#ffffff"
     bordercolor="#666666"
     borderopacity="1"
     objecttolerance="10"
     gridtolerance="10"
     guidetolerance="10"
     inkscape:pageopacity="0"
     inkscape:pageshadow="2"
     inkscape:window-width="847"
     inkscape:window-height="480"
     id="namedview5"
     showgrid="false"
     inkscape:zoom="4.7676768"
     inkscape:cx="49.532839"
     inkscape:cy="21.523547"
     inkscape:window-x="2126"
     inkscape:window-y="138"
     inkscape:window-maximized="0"
     inkscape:current-layer="Capa_1" /><path
     d="m 62.362473,22.925371 c 0.454869,0 0.841507,0.15921 1.159915,0.47761 C 63.840573,23.721391 64,24.108031 64,24.562901 V 39.4371 c 0,0.454869 -0.159427,0.841507 -0.477612,1.159915 -0.318408,0.318185 -0.705046,0.477612 -1.159915,0.477612 H 41.074627 v 21.287846 c 0,0.454869 -0.159427,0.841507 -0.477612,1.159915 C 40.278607,63.840573 39.891969,64 39.4371,64 H 24.5629 C 24.108031,64 23.721393,63.840573 23.402985,63.522388 23.084577,63.20398 22.925373,62.817342 22.925373,62.362473 V 41.074627 H 1.637527 c -0.454869,0 -0.841507,-0.159315 -1.159915,-0.4775 C 0.159204,40.278719 0,39.89208 0,39.437212 V 24.563011 c 0,-0.45487 0.159204,-0.84151 0.477612,-1.15991 0.318408,-0.31841 0.705046,-0.47762 1.159915,-0.47762 H 22.925373 V 1.637531 c 0,-0.45487 0.159204,-0.84151 0.477612,-1.15992 C 23.721393,0.159201 24.108031,1e-6 24.5629,1e-6 h 14.8742 c 0.454869,0 0.841507,0.1592 1.159915,0.47761 0.318185,0.31841 0.477612,0.70505 0.477612,1.15992 v 21.28784 h 21.287846 l 0,0 z"
     id="path3"
     inkscape:connector-curvature="0" /></svg>