<?xml version="1.0" encoding="UTF-8" standalone="no"?>
<!-- Generator: Adobe Illustrator 16.0.0, SVG Export Plug-In . SVG Version: 6.00 Build 0)  -->

<svg
   xmlns:dc="http://purl.org/dc/elements/1.1/"
   xmlns:cc="http://creativecommons.org/ns#"
   xmlns:rdf="http://www.w3.org/1999/02/22-rdf-syntax-ns#"
   xmlns:svg="http://www.w3.org/2000/svg"
   xmlns="http://www.w3.org/2000/svg"
   xmlns:sodipodi="http://sodipodi.sourceforge.net/DTD/sodipodi-0.dtd"
   xmlns:inkscape="http://www.inkscape.org/namespaces/inkscape"
   version="1.1"
   id="Layer_1"
   x="0px"
   y="0px"
   width="64"
   height="64"
   viewBox="0 0 64 64"
   xml:space="preserve"
   inkscape:version="0.48.4 r9939"
   sodipodi:docname="skull.svg"><metadata
     id="metadata19"><rdf:RDF><cc:Work
         rdf:about=""><dc:format>image/svg+xml</dc:format><dc:type
           rdf:resource="http://purl.org/dc/dcmitype/StillImage" /></cc:Work></rdf:RDF></metadata><defs
     id="defs17" /><sodipodi:namedview
     pagecolor="#ffffff"
     bordercolor="#666666"
     borderopacity="1"
     objecttolerance="10"
     gridtolerance="10"
     guidetolerance="10"
     inkscape:pageopacity="0"
     inkscape:pageshadow="2"
     inkscape:window-width="1029"
     inkscape:window-height="728"
     id="namedview15"
     showgrid="false"
     inkscape:zoom="7.375"
     inkscape:cx="35.882251"
     inkscape:cy="34.646631"
     inkscape:window-x="2300"
     inkscape:window-y="65"
     inkscape:window-maximized="0"
     inkscape:current-layer="Layer_1" /><g
     id="g3"
     transform="matrix(0.28111932,0,0,0.28111932,-3.9832482,-4.0123474)"><path
       d="m 20.021,70.328 c 3.242,2.923 7.464,4.533 11.887,4.533 2.827,0 5.631,-0.682 8.112,-1.971 0.91,-0.473 1.79,-1.033 2.616,-1.666 l 5.042,-3.866 13.478,12.586 c 0.349,0.326 0.808,0.505 1.28,0.505 0.059,0 0.119,-0.003 0.178,-0.008 0.535,-0.052 1.022,-0.329 1.338,-0.764 3.4,-4.668 7.42,-8.969 11.949,-12.782 0.41,-0.345 0.653,-0.849 0.667,-1.386 0.014,-0.537 -0.203,-1.053 -0.594,-1.419 L 62.177,51.208 65.386,45.983 C 69.85,38.717 68.49,29.294 62.151,23.577 58.909,20.656 54.686,19.048 50.259,19.048 c -2.83,0 -5.634,0.681 -8.112,1.97 -1.875,0.973 -3.551,2.272 -4.984,3.862 -2.301,2.551 -3.793,5.7 -4.316,9.105 l -0.747,4.871 -4.767,1.249 c -3.329,0.872 -6.307,2.686 -8.616,5.247 -3.162,3.509 -4.77,8.039 -4.523,12.759 0.245,4.714 2.315,9.053 5.827,12.217 z"
       id="path5"
       inkscape:connector-curvature="0" /><path
       d="m 80.392,183.085 v -13.697 c 0,-0.512 -0.209,-1.002 -0.58,-1.356 -0.37,-0.354 -0.864,-0.542 -1.38,-0.518 -1.392,0.064 -2.771,-0.162 -4.079,-0.664 -0.669,-0.256 -1.428,-0.11 -1.952,0.379 l -22.922,21.407 -5.041,-3.861 c -0.833,-0.638 -1.713,-1.2 -2.615,-1.668 -2.483,-1.291 -5.292,-1.973 -8.122,-1.973 -4.422,0 -8.64,1.608 -11.877,4.528 -3.514,3.164 -5.583,7.505 -5.827,12.221 -0.247,4.719 1.361,9.254 4.528,12.773 2.302,2.556 5.277,4.365 8.603,5.231 l 4.777,1.245 0.747,4.881 c 0.52,3.398 2.014,6.55 4.323,9.116 1.425,1.582 3.101,2.878 4.978,3.854 2.48,1.289 5.286,1.97 8.114,1.97 4.423,0 8.642,-1.608 11.879,-4.528 3.512,-3.165 5.583,-7.508 5.833,-12.231 0.188,-3.606 -0.705,-7.121 -2.583,-10.164 l -3.229,-5.229 16.475,-15.386 c 0.504,-0.471 0.709,-1.18 0.534,-1.847 -0.388,-1.474 -0.584,-2.982 -0.584,-4.483 z"
       id="path7"
       inkscape:connector-curvature="0" /><path
       d="m 237.283,45.351 c -2.308,-2.561 -5.287,-4.375 -8.615,-5.247 l -4.768,-1.249 -0.748,-4.871 c -0.523,-3.406 -2.016,-6.554 -4.316,-9.105 -1.434,-1.59 -3.11,-2.889 -4.984,-3.862 -2.478,-1.289 -5.282,-1.97 -8.111,-1.97 -4.427,0 -8.65,1.608 -11.892,4.529 -6.339,5.717 -7.7,15.141 -3.235,22.406 l 3.209,5.225 -13.795,12.884 c -0.393,0.366 -0.609,0.882 -0.595,1.419 0.013,0.537 0.256,1.041 0.667,1.386 4.529,3.813 8.549,8.114 11.949,12.782 0.315,0.435 0.804,0.711 1.337,0.764 0.06,0.005 0.119,0.008 0.178,0.008 0.473,0 0.931,-0.179 1.28,-0.505 l 13.478,-12.586 5.042,3.866 c 0.826,0.633 1.706,1.193 2.616,1.666 2.48,1.289 5.285,1.971 8.112,1.971 4.423,0 8.645,-1.61 11.887,-4.533 3.512,-3.164 5.582,-7.503 5.827,-12.218 0.246,-4.721 -1.361,-9.251 -4.523,-12.76 z"
       id="path9"
       inkscape:connector-curvature="0" /><path
       d="m 234.176,185.662 c -3.237,-2.919 -7.455,-4.528 -11.877,-4.528 -2.83,0 -5.638,0.682 -8.122,1.973 -0.903,0.468 -1.783,1.03 -2.615,1.668 l -5.042,3.861 -22.92,-21.406 c -0.525,-0.49 -1.284,-0.636 -1.953,-0.379 -1.308,0.501 -2.687,0.728 -4.079,0.664 -0.516,-0.024 -1.01,0.165 -1.38,0.518 -0.37,0.353 -0.58,0.844 -0.58,1.356 v 13.697 c 0,1.5 -0.196,3.008 -0.583,4.483 -0.175,0.667 0.03,1.376 0.534,1.847 l 16.475,15.386 -3.229,5.229 c -1.878,3.042 -2.771,6.557 -2.583,10.164 0.25,4.723 2.321,9.066 5.833,12.231 3.238,2.92 7.456,4.528 11.879,4.528 2.828,0 5.634,-0.681 8.114,-1.97 1.877,-0.976 3.551,-2.272 4.977,-3.854 2.308,-2.566 3.803,-5.717 4.323,-9.116 l 0.746,-4.881 4.778,-1.245 c 3.326,-0.866 6.301,-2.676 8.603,-5.231 3.167,-3.519 4.774,-8.054 4.528,-12.773 -0.244,-4.717 -2.313,-9.058 -5.827,-12.222 z"
       id="path11"
       inkscape:connector-curvature="0" /><path
       d="m 176.793,160 c 0.794,0.114 1.595,-0.155 2.157,-0.725 11.221,-11.371 17.399,-26.016 17.399,-41.234 0,-33.98 -30.533,-61.699 -68.35,-62.371 -37.816,0.671 -68.349,28.39 -68.349,62.37 0,15.218 6.179,29.864 17.398,41.234 0.563,0.57 1.363,0.839 2.158,0.725 0.793,-0.115 1.485,-0.6 1.864,-1.307 l 6.142,-11.464 c 0.179,-0.336 0.573,-0.511 0.947,-0.419 0.375,0.094 0.636,0.429 0.636,0.816 v 35.46 c 0,3.97 2.297,7.673 5.856,9.436 6.884,3.396 18.146,7.412 33.348,7.794 15.202,-0.382 26.464,-4.397 33.348,-7.794 3.559,-1.763 5.856,-5.466 5.856,-9.436 v -35.46 c 0,-0.387 0.262,-0.722 0.637,-0.816 0.374,-0.092 0.768,0.083 0.947,0.419 l 6.142,11.464 c 0.379,0.707 1.071,1.193 1.864,1.308 z m -72.084,-25.793 c -9.59,0 -17.392,-9.275 -17.392,-20.675 0,-2.621 2.135,-4.754 4.76,-4.754 h 25.251 c 2.627,0 4.766,2.139 4.77,4.776 -0.002,11.386 -7.802,20.653 -17.389,20.653 z m 35.171,23.085 -4.864,4.195 c -0.256,0.221 -0.639,0.266 -0.94,0.108 l -5.232,-2.744 c -0.687,-0.359 -1.001,-0.359 -1.688,0 l -5.232,2.744 c -0.301,0.157 -0.684,0.113 -0.94,-0.108 l -4.864,-4.195 c -0.351,-0.303 -0.391,-0.835 -0.088,-1.187 l 9.596,-11.14 c 1.438,-1.676 3.304,-1.676 4.743,0 l 9.596,11.14 c 0.304,0.352 0.264,0.884 -0.087,1.187 z m 11.411,-23.085 c -9.586,0 -17.388,-9.267 -17.389,-20.654 0.003,-2.637 2.142,-4.776 4.77,-4.776 h 25.25 c 2.625,0 4.76,2.133 4.76,4.754 0,11.4 -7.801,20.676 -17.391,20.676 z"
       id="path13"
       inkscape:connector-curvature="0" /></g></svg>