<?xml version="1.0" encoding="utf-8"?>
<!-- Generator: Adobe Illustrator 16.0.0, SVG Export Plug-In . SVG Version: 6.00 Build 0)  -->
<!DOCTYPE svg PUBLIC "-//W3C//DTD SVG 1.1//EN" "http://www.w3.org/Graphics/SVG/1.1/DTD/svg11.dtd">
<svg version="1.1" id="Layer_1" xmlns="http://www.w3.org/2000/svg" xmlns:xlink="http://www.w3.org/1999/xlink" x="0px" y="0px"
	 width="500px" height="500px" viewBox="0 0 500 500" enable-background="new 0 0 500 500" xml:space="preserve">
<g>
	<path d="M400.005,299.71c-1.417-1.812-9.303-10.989-25.095-17.014c-13.804-4.272-47.873-15.563-66.695-29.075
		c1.235-1.629,2.444-3.31,3.616-5.054c15.444-22.979,23.949-53.896,23.949-87.06c0-5.456-0.194-10.577-0.546-15.424
		c34.167-6.835,56.25-17.674,56.25-29.878c0-13.976-28.958-26.162-71.863-32.591c-1.062-6.93-1.787-14.609-1.787-22.703
		c0-30.538-9.064-55.295-34.446-55.295c-28.875,0-22.898,34.099-33.388,35.351c-10.49-1.252-4.513-35.351-33.388-35.351
		c-25.381,0-34.446,24.757-34.446,55.295c0,8.094-0.725,15.775-1.787,22.703c-42.905,6.429-71.863,18.615-71.863,32.591
		c0,12.204,22.083,23.043,56.25,29.878c-0.352,4.847-0.546,9.968-0.546,15.424c0,33.163,8.505,64.08,23.949,87.06
		c1.172,1.744,2.38,3.425,3.616,5.054c-18.823,13.512-52.892,24.803-66.695,29.075c-15.792,6.024-23.678,15.202-25.096,17.014
		c-29.041,43.114-32.331,139.842-32.357,140.803c0.26,12.87,4.083,17.269,5.403,17.812C137.056,486.807,212.292,494.24,250,494.383
		c37.707-0.143,112.944-7.576,176.959-36.059c1.32-0.543,5.143-4.941,5.403-17.812C432.337,439.552,429.047,342.824,400.005,299.71z
		 M174.341,92.485c-0.184,0.651-0.281,1.312-0.281,1.979c0,12.739,33.999,23.066,75.94,23.066s75.94-10.327,75.94-23.066
		c0-0.668-0.098-1.328-0.281-1.979c5.72,3.461,8.944,7.37,8.944,11.51c0,14.191-37.878,25.698-84.604,25.698
		s-84.604-11.507-84.604-25.698C165.396,99.855,168.622,95.946,174.341,92.485z M176.004,161.508c0-4.661,0.137-9.1,0.407-13.327
		c21.441,3.461,46.634,5.455,73.589,5.455s52.147-1.994,73.589-5.455c0.27,4.228,0.407,8.666,0.407,13.327
		c0,62.924-32.503,112.212-73.996,112.212S176.004,224.432,176.004,161.508z"/>
	<path d="M245.286,168.924h9.428c1.393,18.262,16.234,32.639,34.347,32.639c18.115,0,32.955-14.377,34.349-32.639h0.01v-0.139
		c0.063-0.884,0.106-1.771,0.106-2.674h-0.106v-5.224H176.473v8.036h0.117c1.394,18.262,16.234,32.639,34.348,32.639
		S243.893,187.186,245.286,168.924z"/>
</g>
</svg>
