<?xml version="1.0" encoding="UTF-8" standalone="no"?>
<!-- Generator: Adobe Illustrator 17.0.0, SVG Export Plug-In . SVG Version: 6.00 Build 0)  -->

<svg
   xmlns:dc="http://purl.org/dc/elements/1.1/"
   xmlns:cc="http://creativecommons.org/ns#"
   xmlns:rdf="http://www.w3.org/1999/02/22-rdf-syntax-ns#"
   xmlns:svg="http://www.w3.org/2000/svg"
   xmlns="http://www.w3.org/2000/svg"
   xmlns:sodipodi="http://sodipodi.sourceforge.net/DTD/sodipodi-0.dtd"
   xmlns:inkscape="http://www.inkscape.org/namespaces/inkscape"
   version="1.1"
   id="Capa_1"
   x="0px"
   y="0px"
   width="64"
   height="64"
   viewBox="0 0 64 64"
   enable-background="new 0 0 52 52"
   xml:space="preserve"
   inkscape:version="0.48.4 r9939"
   sodipodi:docname="star_black.svg"><metadata
     id="metadata11"><rdf:RDF><cc:Work
         rdf:about=""><dc:format>image/svg+xml</dc:format><dc:type
           rdf:resource="http://purl.org/dc/dcmitype/StillImage" /></cc:Work></rdf:RDF></metadata><defs
     id="defs9" /><sodipodi:namedview
     pagecolor="#000000"
     bordercolor="#666666"
     borderopacity="0"
     objecttolerance="10"
     gridtolerance="10"
     guidetolerance="10"
     inkscape:pageopacity="0"
     inkscape:pageshadow="2"
     inkscape:window-width="1855"
     inkscape:window-height="1056"
     id="namedview7"
     showgrid="false"
     inkscape:zoom="4.5384615"
     inkscape:cx="-16.745763"
     inkscape:cy="26"
     inkscape:window-x="1985"
     inkscape:window-y="24"
     inkscape:window-maximized="1"
     inkscape:current-layer="Capa_1" /><g
     id="g3"
     transform="matrix(1.3104858,0,0,1.3104858,-3.7589644,-2.495102)"
     style="fill:#333333;fill-opacity:1"><path
       d="M 21.3,16.99 26.498,6.622 c 0.495,-0.987 1.287,-0.982 1.77,0.011 l 5.066,10.433 c 0.482,0.994 1.759,1.933 2.851,2.099 l 11.462,1.74 c 1.092,0.166 1.332,0.921 0.537,1.687 l -8.354,8.043 c -0.796,0.766 -1.295,2.271 -1.115,3.36 l 1.888,11.445 c 0.18,1.09 -0.464,1.552 -1.439,1.031 L 28.933,41.008 c -0.974,-0.52 -2.559,-0.53 -3.54,-0.022 l -10.297,5.333 c -0.981,0.508 -1.619,0.038 -1.425,-1.049 l 2.033,-11.418 c 0.194,-1.087 -0.287,-2.598 -1.073,-3.374 L 6.379,22.33 C 5.593,21.554 5.843,20.802 6.937,20.65 l 11.486,-1.596 c 1.094,-0.153 2.382,-1.076 2.877,-2.064 z"
       id="path5"
       inkscape:connector-curvature="0"
       style="fill:#333333;fill-opacity:1" /></g></svg>