<?xml version="1.0" encoding="UTF-8" standalone="no"?>
<!-- Generator: Adobe Illustrator 16.0.4, SVG Export Plug-In . SVG Version: 6.00 Build 0)  -->

<svg
   xmlns:dc="http://purl.org/dc/elements/1.1/"
   xmlns:cc="http://creativecommons.org/ns#"
   xmlns:rdf="http://www.w3.org/1999/02/22-rdf-syntax-ns#"
   xmlns:svg="http://www.w3.org/2000/svg"
   xmlns="http://www.w3.org/2000/svg"
   xmlns:sodipodi="http://sodipodi.sourceforge.net/DTD/sodipodi-0.dtd"
   xmlns:inkscape="http://www.inkscape.org/namespaces/inkscape"
   version="1.1"
   id="Layer_1"
   x="0px"
   y="0px"
   width="64"
   height="64"
   viewBox="0 0 64.000001 64"
   enable-background="new 0 0 100.393 112"
   xml:space="preserve"
   inkscape:version="0.48.4 r9939"
   sodipodi:docname="synchronization1.svg"><metadata
     id="metadata9"><rdf:RDF><cc:Work
         rdf:about=""><dc:format>image/svg+xml</dc:format><dc:type
           rdf:resource="http://purl.org/dc/dcmitype/StillImage" /></cc:Work></rdf:RDF></metadata><defs
     id="defs7" /><sodipodi:namedview
     pagecolor="#ffffff"
     bordercolor="#666666"
     borderopacity="1"
     objecttolerance="10"
     gridtolerance="10"
     guidetolerance="10"
     inkscape:pageopacity="0"
     inkscape:pageshadow="2"
     inkscape:window-width="1535"
     inkscape:window-height="873"
     id="namedview5"
     showgrid="false"
     inkscape:zoom="5.9599"
     inkscape:cx="2.9579027"
     inkscape:cy="27.615879"
     inkscape:window-x="75"
     inkscape:window-y="34"
     inkscape:window-maximized="0"
     inkscape:current-layer="Layer_1" /><path
     d="M 12.853723,33.241 7.0537227,33.622 C 6.3022227,22.057999 13.500223,11.555999 24.551223,8.0649994 c 6.4775,-2.0415 13.4885,-1.3345 19.4455,1.883 l 5.568,-5.948 1.4845,16.5059996 -17.4835,0.5835 6.2875,-6.718 c -4.259,-1.876 -9.074,-2.1725 -13.5495,-0.7535 -8.5025,2.6765 -14.0235,10.742501 -13.45,19.623001 z m 44.2865,-2.8605 -5.802,0.3805 c 0.581,8.862 -4.947,16.938 -13.448,19.621 -4.475,1.412 -9.291,1.118 -13.542,-0.7515 l 6.2835,-6.724 -17.474,0.5885 1.4815,16.505 5.5795,-5.9575 c 3.691,1.9835 7.779,3.0475 11.8975,3.0475 2.526,0 5.0725,-0.3895 7.522,-1.156 11.067,-3.4985 18.2655,-14.0065 17.502,-25.5535 z"
     id="path3"
     inkscape:connector-curvature="0"
     style="fill:#333333;fill-opacity:1" /></svg>